<?xml version="1.0" encoding="iso-8859-1"?>
<!-- Generator: Adobe Illustrator 16.0.0, SVG Export Plug-In . SVG Version: 6.00 Build 0)  -->
<!DOCTYPE svg PUBLIC "-//W3C//DTD SVG 1.1//EN" "http://www.w3.org/Graphics/SVG/1.1/DTD/svg11.dtd">
<svg version="1.1" id="Capa_1" xmlns="http://www.w3.org/2000/svg" xmlns:xlink="http://www.w3.org/1999/xlink" x="0px" y="0px"
	 width="97.706px" height="97.706px" viewBox="0 0 97.706 97.706" style="enable-background:new 0 0 97.706 97.706;"
	 xml:space="preserve">
<g>
	<path d="M90.734,59.668c0-1.706-1.614-3.09-3.659-3.225c1.928-0.438,3.37-2.152,3.37-4.211V5.201c0-2.389-1.936-4.326-4.323-4.326
		H10.168c-2.389,0-4.324,1.938-4.324,4.326v47.032c0,2.039,1.418,3.74,3.32,4.196c-2.137,0.058-3.85,1.479-3.85,3.238L0,93.577
		c0,1.8,1.784,3.254,3.984,3.254h89.739c2.199,0,3.983-1.454,3.983-3.254L90.734,59.668z M86.87,65.386
		c1.153,0.122,1.879,0.834,1.623,1.589c-0.263,0.762-1.405,1.28-2.562,1.161c-1.16-0.12-1.879-0.83-1.621-1.589
		C84.564,65.792,85.713,65.27,86.87,65.386z M82.066,63.247c0.259-0.762,1.402-1.279,2.561-1.157
		c1.152,0.118,1.872,0.829,1.611,1.586c-0.252,0.759-1.397,1.28-2.553,1.16C82.527,64.716,81.809,64.004,82.066,63.247z
		 M12.796,69.692h3.04l-0.152,2.088l-1.688,1.527l-1.354-1.527L12.796,69.692z M8.997,75.647l0.209-2.852h2.225l1.521,1.479
		l-1.729,1.373H8.997z M15.173,78.755h-3.04l0.153-2.089l1.577-1.529l1.463,1.529L15.173,78.755z M18.657,75.647h-2.226
		l-1.529-1.373l1.737-1.479h2.226L18.657,75.647z M22.774,86.165l2.387-24.717H72.02l2.252,24.717H22.774z M76.591,47.073H20.454
		V9.541h56.138L76.591,47.073L76.591,47.073z M77.45,65.334c0.257-0.754,1.403-1.273,2.563-1.158
		c1.153,0.12,1.877,0.834,1.619,1.588c-0.263,0.762-1.4,1.281-2.562,1.164C77.915,66.804,77.193,66.096,77.45,65.334z M79.54,68.799
		c0.258-0.756,1.401-1.277,2.562-1.162c1.157,0.121,1.879,0.836,1.623,1.589c-0.265,0.761-1.402,1.28-2.562,1.164
		C80.004,70.268,79.282,69.556,79.54,68.799z M85.695,85.309c-3.202,0-5.799-1.557-5.799-3.479s2.597-3.479,5.799-3.479
		c3.203,0,5.8,1.558,5.8,3.479S88.898,85.309,85.695,85.309z"/>
</g>
<g>
</g>
<g>
</g>
<g>
</g>
<g>
</g>
<g>
</g>
<g>
</g>
<g>
</g>
<g>
</g>
<g>
</g>
<g>
</g>
<g>
</g>
<g>
</g>
<g>
</g>
<g>
</g>
<g>
</g>
</svg>
