<?xml version="1.0" encoding="utf-8"?>
<!-- Svg Vector Icons : http://www.onlinewebfonts.com/icon -->
<!DOCTYPE svg PUBLIC "-//W3C//DTD SVG 1.1//EN" "http://www.w3.org/Graphics/SVG/1.1/DTD/svg11.dtd">
<svg version="1.1" xmlns="http://www.w3.org/2000/svg" xmlns:xlink="http://www.w3.org/1999/xlink" x="0px" y="0px" viewBox="0 0 1000 1000" enable-background="new 0 0 1000 1000" xml:space="preserve">
<metadata> Svg Vector Icons : http://www.onlinewebfonts.com/icon </metadata>
<g><g><g><path d="M812.3,451.3c-15.8,0-28.7,12.9-28.7,28.7c0,15.8,12.9,28.7,28.7,28.7c15.8,0,28.7-12.9,28.7-28.7C841,464.2,828.1,451.3,812.3,451.3z"/><circle cx="902.2" cy="446.2" r="28.7"/><path d="M966.6,332.8c-8.8-54.6-44.9-72.2-66.3-72.2c-21.5,0-114.1-2.9-123.9-20.5c-9.8-17.5-46.8-17.5-46.8-17.5H500H270.4c0,0-37.1,0-46.8,17.5c-9.8,17.5-102.4,20.5-123.9,20.5c-21.5,0-57.5,17.5-66.3,72.2C24.6,387.4,10,628.2,10,628.2S8.1,678,78.3,697.5c70.2,19.5,108.3,33.2,162.9,47.8s105.2,32.2,258.9,32.2c153.6,0,204.3-17.6,258.9-32.2s92.6-28.3,162.9-47.8c70.2-19.5,68.3-69.2,68.3-69.2S975.4,387.4,966.6,332.8z M161.4,515.8c0,6.1-4.9,11-11,11H127c-6.1,0-11-4.9-11-11v-31.3H84.8c-6.1,0-11-4.9-11-11v-23.4c0-6.1,4.9-11,11-11h31.3v-31.3c0-6.1,4.9-11,11-11h23.4c6.1,0,11,4.9,11,11v31.3h31.3c6.1,0,11,4.9,11,11v23.4c0,6.1-4.9,11-11,11h-31.3V515.8z M198.5,675c-13.6,0-24.6-11.1-24.6-24.6s11.1-24.6,24.6-24.6c13.6,0,24.6,11,24.6,24.6S212.1,675,198.5,675z M198.5,620.4c-13.6,0-24.6-11-24.6-24.6c0-13.6,11.1-24.6,24.6-24.6c13.6,0,24.6,11.1,24.6,24.6C223.2,609.3,212.1,620.4,198.5,620.4z M687,707.4c-68.4,14.3-155.5,21.2-181.9,23v0.7l-6.6-0.2l-6,0.4v-0.8c-26.4-1.8-113.5-8.7-181.9-23c-84.3-17.7-76.9-81.8-76.9-82.4c0.3-9.2,7.8-237.8,9.1-254.6c0.1-1.4,0.2-3.1,0.3-4.9c1-19.4,3-59.6,52-68.7c43.4-8,167.5-10,197.3-10.4v-0.1l6.4,0l6.3-0.1v0.1c29.9,0.4,154,2.4,197.4,10.4c49.1,9,51,49.3,52,68.7c0.1,1.8,0.2,3.4,0.3,4.9c1.3,16.8,8.8,245.4,9.1,255.1C763.9,625.6,771.3,689.7,687,707.4z M812.3,518.9c-21.5,0-38.9-17.5-38.9-38.9c0-21.5,17.5-38.9,38.9-38.9c21.5,0,38.9,17.5,38.9,38.9C851.2,501.5,833.8,518.9,812.3,518.9z M902.2,485.1c-21.5,0-38.9-17.5-38.9-38.9s17.5-38.9,38.9-38.9c21.5,0,38.9,17.5,38.9,38.9S923.7,485.1,902.2,485.1z"/><rect x="293" y="349.9" width="414.1" height="260.2"/><circle cx="198.5" cy="595.7" r="14.4"/><path d="M193.4,473.5v-23.4l-42.3-0.7v-41.5l-24.1-0.7l-0.7,42.3H84.8L84,473.5l42.3,0.7v41.5l24.1,0.7c0.4,0,0.7-0.3,0.7-0.7v-41.5h41.5C193.1,474.2,193.4,473.9,193.4,473.5z"/><circle cx="198.5" cy="650.3" r="14.4"/><path d="M744.5,371.2c-0.1-1.5-0.2-3.3-0.3-5.2c-1-19.3-2.6-51.5-43.6-59.1c-45.8-8.4-185-10.1-200.7-10.3l-1.4,0l-0.9,0c-15.7,0.2-154.9,1.9-200.7,10.3c-41.1,7.6-42.7,39.8-43.6,59.1c-0.1,1.9-0.2,3.6-0.3,5.2c-1.3,16.6-9,252.3-9.1,254.6c-0.3,2.7-6,55.9,68.8,71.5c72.8,15.3,167.1,22,185.2,23.1l0.9,0.1l0.9-0.1c18.2-1.2,112.5-7.9,185.2-23.1c75.1-15.8,69.1-68.8,68.8-71C753.6,623.4,745.8,387.8,744.5,371.2z M717.3,620.4H282.7V339.6h434.6V620.4z"/></g></g><g></g><g></g><g></g><g></g><g></g><g></g><g></g><g></g><g></g><g></g><g></g><g></g><g></g><g></g><g></g></g>
</svg>