<?xml version="1.0" encoding="utf-8"?>
<!-- Svg Vector Icons : http://www.onlinewebfonts.com/icon -->
<!DOCTYPE svg PUBLIC "-//W3C//DTD SVG 1.1//EN" "http://www.w3.org/Graphics/SVG/1.1/DTD/svg11.dtd">
<svg version="1.1" xmlns="http://www.w3.org/2000/svg" xmlns:xlink="http://www.w3.org/1999/xlink" x="0px" y="0px" viewBox="0 0 1000 1000" enable-background="new 0 0 1000 1000" xml:space="preserve">
<metadata> Svg Vector Icons : http://www.onlinewebfonts.com/icon </metadata>
<g><g transform="translate(0.000000,511.000000) scale(0.100000,-0.100000)"><path d="M2045,2507.5C1314.5,2353.5,689.1,1864.9,359.3,1198C85.7,641,27.1,37.6,190.8-551.1c239.4-864.8,979.6-1551.3,1864-1734.5c210.1-44,373.8-46.4,2946.2-46.4c2560.2,0,2736.1,2.5,2943.8,46.4c759.8,156.3,1409.6,674.2,1734.5,1380.3c295.6,635.2,293.2,1397.4,0,2035c-324.9,701.1-977.2,1221.5-1732.1,1377.8c-210.1,44-371.3,46.4-2958.4,44C2452.9,2551.4,2237.9,2546.5,2045,2507.5z M7944.7,1982.2c344.5-102.6,637.6-278.5,872.1-517.9c246.7-254.1,381.1-476.4,488.6-815.9c48.9-158.8,56.2-232.1,53.8-549.7c0-329.8-7.4-386-66-561.9c-107.5-322.5-241.9-535-491.1-781.8c-317.6-312.7-588.7-456.8-1011.4-539.9c-273.6-51.3-5313.4-51.3-5589.5,2.4C1277.9-1606.5,628-824.8,628,110.9c0,957.6,706,1778.5,1649,1912.8c41.5,4.9,1299.7,9.8,2797.2,7.3C7619.8,2026.2,7807.9,2023.7,7944.7,1982.2z"/><path d="M2411.4,110.9v-1685.7h2589.5h2589.5V110.9v1685.6H5000.9H2411.4V110.9z M7077.5,110.9v-1172.6H5000.9H2924.4V110.9v1172.6h2076.5h2076.5V110.9z"/><path d="M8167,917.1c-144.1-46.4-234.5-178.3-234.5-346.9c0-190.5,149-337.1,342-337.1c205.2,0,349.3,149,349.3,361.6C8623.8,816.9,8386.9,985.5,8167,917.1z"/><path d="M1231.5,780.3c-9.8-9.8-17.1-97.7-17.1-197.9V404.1h-183.2H847.9V147.5V-109h183.2h183.2v-195.4v-195.4h268.7h268.7v195.4V-109h180.8c122.1,0,183.2,9.8,190.6,31.7c4.9,14.7,4.9,131.9,0,256.5l-9.8,224.8h-180.8h-178.3l-7.3,190.5l-7.3,188.1l-246.7,7.3C1358.5,792.5,1241.2,790,1231.5,780.3z"/><path d="M8086.4-35.7c-215-129.5-202.8-483.7,22-601c234.5-122.1,515.5,36.7,515.5,288.3c0,212.5-141.7,361.6-349.3,361.6C8208.5,13.2,8132.8-6.4,8086.4-35.7z"/></g></g>
</svg>