<?xml version="1.0" encoding="iso-8859-1"?>
<!-- Generator: Adobe Illustrator 19.0.0, SVG Export Plug-In . SVG Version: 6.00 Build 0)  -->
<svg version="1.1" id="Layer_1" xmlns="http://www.w3.org/2000/svg" xmlns:xlink="http://www.w3.org/1999/xlink" x="0px" y="0px"
	 viewBox="0 0 512 512" style="enable-background:new 0 0 512 512;" xml:space="preserve">
<g>
	<g>
		<g>
			<path d="M256,362.667c-23.573,0-42.667,19.093-42.667,42.667C213.333,428.907,232.427,448,256,448s42.667-19.093,42.667-42.667
				C298.667,381.76,279.573,362.667,256,362.667z"/>
			<path d="M512,206.592C512,91.242,396.424,0,256,0S0,91.242,0,206.592c0,38.688,27.643,94.847,63.975,140.54
				c0.003,16.531,0.006,29.524,0.013,57.148c0.006,23.297,0.006,23.297,0.012,43.854C64,483.424,92.606,512,127.915,512h256.171
				C419.378,512,448,483.418,448,448.128v-98.44C484.88,306.312,512,249.319,512,206.592z M219.84,45.029L96.809,109.077
				c-10.867,5.657-14.747,19.284-8.491,29.818l12.672,21.333c6.017,10.13,19.107,13.464,29.236,7.447
				c10.13-6.017,13.464-19.107,7.447-29.236l-1.149-1.935l35.834-18.655l3.409,4.937c6.695,9.695,19.981,12.128,29.677,5.433
				s12.128-19.981,5.433-29.677l-0.379-0.549l24.878-12.951l2.256,3.813c5.999,10.141,19.082,13.498,29.223,7.5
				c10.141-5.999,13.498-19.082,7.5-29.223l-12.544-21.205c-0.691-1.168-1.482-2.241-2.348-3.227
				c117.145,1.436,209.87,75.483,209.87,163.891c0,18.542-8.174,43.126-21.333,67.67V192c0-0.692-0.04-1.372-0.103-2.045
				c-0.006-0.067-0.01-0.135-0.017-0.202c-0.068-0.654-0.169-1.297-0.295-1.931c-0.014-0.071-0.027-0.142-0.042-0.213
				c-0.133-0.64-0.296-1.268-0.485-1.885c-0.015-0.049-0.031-0.097-0.046-0.146c-0.201-0.637-0.428-1.262-0.685-1.871
				c-0.004-0.01-0.009-0.019-0.013-0.029c-0.539-1.271-1.195-2.477-1.957-3.604c0,0,0-0.001-0.001-0.001
				c-0.364-0.538-0.754-1.055-1.163-1.555c-0.039-0.047-0.076-0.096-0.116-0.143c-0.391-0.47-0.803-0.922-1.233-1.356
				c-0.066-0.067-0.132-0.133-0.199-0.199c-0.424-0.417-0.863-0.818-1.319-1.199c-0.078-0.065-0.157-0.127-0.236-0.191
				c-0.465-0.377-0.943-0.738-1.438-1.076c-0.064-0.043-0.13-0.083-0.194-0.126c-0.52-0.346-1.052-0.673-1.602-0.973
				c-0.01-0.005-0.019-0.011-0.029-0.017c-0.575-0.313-1.168-0.594-1.772-0.854c-0.043-0.018-0.084-0.038-0.127-0.057
				c-0.602-0.254-1.22-0.478-1.847-0.676c-0.041-0.013-0.08-0.026-0.121-0.039c-0.642-0.199-1.296-0.366-1.961-0.504
				c-0.023-0.005-0.045-0.01-0.068-0.014c-0.683-0.139-1.376-0.246-2.079-0.317c-0.005,0-0.01-0.001-0.015-0.001
				c-0.712-0.072-1.433-0.11-2.161-0.109c-0.004,0-0.008-0.001-0.012-0.001H85.333c-0.004,0-0.008,0.001-0.011,0.001
				c-0.728-0.001-1.448,0.037-2.159,0.109c-0.006,0.001-0.011,0.001-0.017,0.002c-0.702,0.071-1.394,0.178-2.076,0.317
				c-0.024,0.005-0.047,0.01-0.071,0.015c-0.663,0.137-1.316,0.305-1.957,0.503c-0.042,0.013-0.083,0.027-0.125,0.04
				c-0.625,0.198-1.24,0.42-1.841,0.673c-0.046,0.02-0.091,0.041-0.138,0.061c-0.6,0.258-1.189,0.537-1.76,0.848
				c-0.016,0.009-0.031,0.018-0.047,0.027c-0.546,0.298-1.075,0.623-1.592,0.967c-0.062,0.041-0.125,0.079-0.186,0.121
				c-0.497,0.338-0.975,0.7-1.441,1.077c-0.078,0.063-0.157,0.125-0.234,0.189c-0.456,0.381-0.896,0.781-1.319,1.198
				c-0.067,0.066-0.133,0.132-0.199,0.199c-0.429,0.434-0.84,0.885-1.231,1.354c-0.04,0.049-0.079,0.098-0.119,0.147
				c-0.408,0.499-0.797,1.014-1.159,1.549c-0.003,0.004-0.006,0.009-0.008,0.013c-0.762,1.127-1.419,2.332-1.957,3.603
				c-0.002,0.005-0.004,0.01-0.006,0.015c-0.258,0.61-0.486,1.236-0.687,1.874c-0.015,0.049-0.031,0.097-0.046,0.146
				c-0.189,0.615-0.351,1.242-0.484,1.88c-0.015,0.073-0.029,0.147-0.044,0.22c-0.125,0.63-0.226,1.269-0.294,1.919
				c-0.008,0.074-0.012,0.149-0.019,0.223c-0.062,0.66-0.102,1.327-0.104,2.005c0,0.009,0,0.019,0,0.028c0,0,0,0,0,0
				c0,0.004,0,0.007,0,0.011c-0.023,12.681-0.034,39.117-0.034,77.888c-13.061-24.321-21.299-47.496-21.299-63.296
				C42.667,126.591,118.597,58.35,219.84,45.029z M256,234.667H106.65c0.001-2.972,0.002-5.946,0.003-8.921
				c0.002-6.111,0.003-9.617,0.004-12.413h10.175c66.702,0.213,211.653,0.213,278.346,0h10.154v21.333H256z M230.444,277.333
				C220.66,301.616,195.171,320,167.68,320c-26.453,0-49.148-17.737-57.545-42.667H230.444z M401.11,277.333
				C391.327,301.616,365.837,320,338.347,320c-26.453,0-49.148-17.737-57.545-42.667H401.11z M405.333,448.128
				c0,11.712-9.506,21.205-21.248,21.205H127.915c-11.754,0-21.248-9.484-21.248-21.205c-0.006-20.563-0.006-20.563-0.012-43.86
				c-0.008-30.114-0.011-42.837-0.014-61.715c0-0.108,0-0.214,0-0.323c17.103,12.841,38.183,20.436,61.039,20.436
				c34.578,0,66.81-17.166,87.257-43.308c18.855,26.243,49.138,43.308,83.41,43.308c24.665,0,48.134-8.737,66.987-23.233v2.262
				V448.128z"/>
		</g>
	</g>
</g>
<g>
</g>
<g>
</g>
<g>
</g>
<g>
</g>
<g>
</g>
<g>
</g>
<g>
</g>
<g>
</g>
<g>
</g>
<g>
</g>
<g>
</g>
<g>
</g>
<g>
</g>
<g>
</g>
<g>
</g>
</svg>
